{
	"asset":{
		"generator":"Khronos glTF Blender I/O v4.0.44",
		"version":"2.0"
	},
	"extensionsUsed":[
		"KHR_materials_specular",
		"KHR_materials_ior"
	],
	"scene":0,
	"scenes":[
		{
			"name":"Scene",
			"nodes":[
				0,
				1,
				2,
				3,
				4,
				5,
				6,
				7,
				8,
				9,
				10,
				11,
				12,
				13
			]
		}
	],
	"nodes":[
		{
			"mesh":0,
			"name":"Waist"
		},
		{
			"mesh":1,
			"name":"Left upper arm"
		},
		{
			"mesh":2,
			"name":"Right upper arm"
		},
		{
			"mesh":3,
			"name":"Head"
		},
		{
			"mesh":4,
			"name":"Right foot"
		},
		{
			"mesh":5,
			"name":"Right hand"
		},
		{
			"mesh":6,
			"name":"Cape"
		},
		{
			"mesh":7,
			"name":"Shield"
		},
		{
			"mesh":8,
			"name":"Waist.001"
		},
		{
			"mesh":9,
			"name":"Waist.002"
		},
		{
			"mesh":10,
			"name":"Right thigh.001"
		},
		{
			"mesh":11,
			"name":"Left thigh.001"
		},
		{
			"mesh":12,
			"name":"Armor.002"
		},
		{
			"mesh":13,
			"name":"Left foot.001"
		}
	],
	"materials":[
		{
			"doubleSided":true,
			"extensions":{
				"KHR_materials_specular":{
					"specularFactor":0
				},
				"KHR_materials_ior":{
					"ior":1.4500000476837158
				}
			},
			"name":"Character",
			"pbrMetallicRoughness":{
				"baseColorTexture":{
					"index":0
				},
				"metallicFactor":0
			}
		}
	],
	"meshes":[
		{
			"name":"Cube.001",
			"primitives":[
				{
					"attributes":{
						"POSITION":0,
						"NORMAL":1,
						"TEXCOORD_0":2
					},
					"indices":3,
					"material":0
				}
			]
		},
		{
			"name":"Cube.004",
			"primitives":[
				{
					"attributes":{
						"POSITION":4,
						"NORMAL":5,
						"TEXCOORD_0":6
					},
					"indices":7,
					"material":0
				}
			]
		},
		{
			"name":"Cube.005",
			"primitives":[
				{
					"attributes":{
						"POSITION":8,
						"NORMAL":9,
						"TEXCOORD_0":10
					},
					"indices":11,
					"material":0
				}
			]
		},
		{
			"name":"Cube.006",
			"primitives":[
				{
					"attributes":{
						"POSITION":12,
						"NORMAL":13,
						"TEXCOORD_0":14
					},
					"indices":15,
					"material":0
				}
			]
		},
		{
			"name":"Cube.008",
			"primitives":[
				{
					"attributes":{
						"POSITION":16,
						"NORMAL":17,
						"TEXCOORD_0":18
					},
					"indices":19,
					"material":0
				}
			]
		},
		{
			"name":"Cube.012",
			"primitives":[
				{
					"attributes":{
						"POSITION":20,
						"NORMAL":21,
						"TEXCOORD_0":22
					},
					"indices":23,
					"material":0
				}
			]
		},
		{
			"name":"Cube.003",
			"primitives":[
				{
					"attributes":{
						"POSITION":24,
						"NORMAL":25,
						"TEXCOORD_0":26
					},
					"indices":27,
					"material":0
				}
			]
		},
		{
			"name":"Plane",
			"primitives":[
				{
					"attributes":{
						"POSITION":28,
						"NORMAL":29,
						"TEXCOORD_0":30
					},
					"indices":31,
					"material":0
				}
			]
		},
		{
			"name":"Cube.021",
			"primitives":[
				{
					"attributes":{
						"POSITION":32,
						"NORMAL":33,
						"TEXCOORD_0":34
					},
					"indices":35,
					"material":0
				}
			]
		},
		{
			"name":"Cube.002",
			"primitives":[
				{
					"attributes":{
						"POSITION":36,
						"NORMAL":37,
						"TEXCOORD_0":38
					},
					"indices":39,
					"material":0
				}
			]
		},
		{
			"name":"Cube.011",
			"primitives":[
				{
					"attributes":{
						"POSITION":40,
						"NORMAL":41,
						"TEXCOORD_0":42
					},
					"indices":43,
					"material":0
				}
			]
		},
		{
			"name":"Cube.014",
			"primitives":[
				{
					"attributes":{
						"POSITION":44,
						"NORMAL":45,
						"TEXCOORD_0":46
					},
					"indices":47,
					"material":0
				}
			]
		},
		{
			"name":"Cube.015",
			"primitives":[
				{
					"attributes":{
						"POSITION":48,
						"NORMAL":49,
						"TEXCOORD_0":50
					},
					"indices":51,
					"material":0
				}
			]
		},
		{
			"name":"Cube.017",
			"primitives":[
				{
					"attributes":{
						"POSITION":52,
						"NORMAL":53,
						"TEXCOORD_0":54
					},
					"indices":55,
					"material":0
				}
			]
		}
	],
	"textures":[
		{
			"sampler":0,
			"source":0
		}
	],
	"images":[
		{
			"mimeType":"image/png",
			"name":"fullchara",
			"uri":"fullchara.png"
		}
	],
	"accessors":[
		{
			"bufferView":0,
			"componentType":5126,
			"count":164,
			"max":[
				0.532717227935791,
				1.8393652439117432,
				0.2870200574398041
			],
			"min":[
				-0.532717227935791,
				0.8228052854537964,
				-0.35149911046028137
			],
			"type":"VEC3"
		},
		{
			"bufferView":1,
			"componentType":5126,
			"count":164,
			"type":"VEC3"
		},
		{
			"bufferView":2,
			"componentType":5126,
			"count":164,
			"type":"VEC2"
		},
		{
			"bufferView":3,
			"componentType":5123,
			"count":174,
			"type":"SCALAR"
		},
		{
			"bufferView":4,
			"componentType":5126,
			"count":72,
			"max":[
				1.0546001195907593,
				1.6575145721435547,
				0.018758103251457214
			],
			"min":[
				0.4503383934497833,
				1.1076288223266602,
				-0.3065703511238098
			],
			"type":"VEC3"
		},
		{
			"bufferView":5,
			"componentType":5126,
			"count":72,
			"type":"VEC3"
		},
		{
			"bufferView":6,
			"componentType":5126,
			"count":72,
			"type":"VEC2"
		},
		{
			"bufferView":7,
			"componentType":5123,
			"count":72,
			"type":"SCALAR"
		},
		{
			"bufferView":8,
			"componentType":5126,
			"count":66,
			"max":[
				-0.4503383934497833,
				1.6065765619277954,
				0.018758103251457214
			],
			"min":[
				-1.059191346168518,
				1.1243020296096802,
				-0.3065703511238098
			],
			"type":"VEC3"
		},
		{
			"bufferView":9,
			"componentType":5126,
			"count":66,
			"type":"VEC3"
		},
		{
			"bufferView":10,
			"componentType":5126,
			"count":66,
			"type":"VEC2"
		},
		{
			"bufferView":11,
			"componentType":5123,
			"count":66,
			"type":"SCALAR"
		},
		{
			"bufferView":12,
			"componentType":5126,
			"count":210,
			"max":[
				0.18677930533885956,
				2.4919705390930176,
				0.2516323924064636
			],
			"min":[
				-0.19958285987377167,
				1.758998155593872,
				-0.30137935280799866
			],
			"type":"VEC3"
		},
		{
			"bufferView":13,
			"componentType":5126,
			"count":210,
			"type":"VEC3"
		},
		{
			"bufferView":14,
			"componentType":5126,
			"count":210,
			"type":"VEC2"
		},
		{
			"bufferView":15,
			"componentType":5123,
			"count":210,
			"type":"SCALAR"
		},
		{
			"bufferView":16,
			"componentType":5126,
			"count":144,
			"max":[
				-0.19655472040176392,
				-1.030855417251587,
				0.2359755039215088
			],
			"min":[
				-0.45435822010040283,
				-2.218745231628418,
				-0.34869199991226196
			],
			"type":"VEC3"
		},
		{
			"bufferView":17,
			"componentType":5126,
			"count":144,
			"type":"VEC3"
		},
		{
			"bufferView":18,
			"componentType":5126,
			"count":144,
			"type":"VEC2"
		},
		{
			"bufferView":19,
			"componentType":5123,
			"count":144,
			"type":"SCALAR"
		},
		{
			"bufferView":20,
			"componentType":5126,
			"count":125,
			"max":[
				-0.9381877183914185,
				1.295286774635315,
				1.6807022094726562
			],
			"min":[
				-1.958662748336792,
				0.9263470768928528,
				-0.400544136762619
			],
			"type":"VEC3"
		},
		{
			"bufferView":21,
			"componentType":5126,
			"count":125,
			"type":"VEC3"
		},
		{
			"bufferView":22,
			"componentType":5126,
			"count":125,
			"type":"VEC2"
		},
		{
			"bufferView":23,
			"componentType":5123,
			"count":135,
			"type":"SCALAR"
		},
		{
			"bufferView":24,
			"componentType":5126,
			"count":75,
			"max":[
				0.7512556910514832,
				1.8497016429901123,
				0.19033606350421906
			],
			"min":[
				-0.8125087022781372,
				-1.642519474029541,
				-0.5276386141777039
			],
			"type":"VEC3"
		},
		{
			"bufferView":25,
			"componentType":5126,
			"count":75,
			"type":"VEC3"
		},
		{
			"bufferView":26,
			"componentType":5126,
			"count":75,
			"type":"VEC2"
		},
		{
			"bufferView":27,
			"componentType":5123,
			"count":75,
			"type":"SCALAR"
		},
		{
			"bufferView":28,
			"componentType":5126,
			"count":144,
			"max":[
				2.364445209503174,
				1.4405527114868164,
				0.3918011784553528
			],
			"min":[
				0.8916742205619812,
				0.7594712376594543,
				-0.7767589688301086
			],
			"type":"VEC3"
		},
		{
			"bufferView":29,
			"componentType":5126,
			"count":144,
			"type":"VEC3"
		},
		{
			"bufferView":30,
			"componentType":5126,
			"count":144,
			"type":"VEC2"
		},
		{
			"bufferView":31,
			"componentType":5123,
			"count":144,
			"type":"SCALAR"
		},
		{
			"bufferView":32,
			"componentType":5126,
			"count":160,
			"max":[
				0.46529218554496765,
				0.8578591346740723,
				0.2955549359321594
			],
			"min":[
				-0.46529218554496765,
				-0.09977225214242935,
				-0.24042218923568726
			],
			"type":"VEC3"
		},
		{
			"bufferView":33,
			"componentType":5126,
			"count":160,
			"type":"VEC3"
		},
		{
			"bufferView":34,
			"componentType":5126,
			"count":160,
			"type":"VEC2"
		},
		{
			"bufferView":35,
			"componentType":5123,
			"count":162,
			"type":"SCALAR"
		},
		{
			"bufferView":36,
			"componentType":5126,
			"count":105,
			"max":[
				0.5136615037918091,
				1.8830307722091675,
				0.34200945496559143
			],
			"min":[
				-0.5136615037918091,
				0.7130017280578613,
				-0.37375226616859436
			],
			"type":"VEC3"
		},
		{
			"bufferView":37,
			"componentType":5126,
			"count":105,
			"type":"VEC3"
		},
		{
			"bufferView":38,
			"componentType":5126,
			"count":105,
			"type":"VEC2"
		},
		{
			"bufferView":39,
			"componentType":5123,
			"count":105,
			"type":"SCALAR"
		},
		{
			"bufferView":40,
			"componentType":5126,
			"count":84,
			"max":[
				-0.04746898636221886,
				-0.0948760136961937,
				0.2021433711051941
			],
			"min":[
				-0.48323479294776917,
				-1.1003731489181519,
				-0.2623305022716522
			],
			"type":"VEC3"
		},
		{
			"bufferView":41,
			"componentType":5126,
			"count":84,
			"type":"VEC3"
		},
		{
			"bufferView":42,
			"componentType":5126,
			"count":84,
			"type":"VEC2"
		},
		{
			"bufferView":43,
			"componentType":5123,
			"count":84,
			"type":"SCALAR"
		},
		{
			"bufferView":44,
			"componentType":5126,
			"count":78,
			"max":[
				0.4782177805900574,
				-0.0948760136961937,
				0.2021433711051941
			],
			"min":[
				0.06567509472370148,
				-1.083852767944336,
				-0.2623305022716522
			],
			"type":"VEC3"
		},
		{
			"bufferView":45,
			"componentType":5126,
			"count":78,
			"type":"VEC3"
		},
		{
			"bufferView":46,
			"componentType":5126,
			"count":78,
			"type":"VEC2"
		},
		{
			"bufferView":47,
			"componentType":5123,
			"count":78,
			"type":"SCALAR"
		},
		{
			"bufferView":48,
			"componentType":5126,
			"count":93,
			"max":[
				0.21655729413032532,
				2.5210206508636475,
				0.29323187470436096
			],
			"min":[
				-0.21655729413032532,
				1.9084702730178833,
				-0.3188772201538086
			],
			"type":"VEC3"
		},
		{
			"bufferView":49,
			"componentType":5126,
			"count":93,
			"type":"VEC3"
		},
		{
			"bufferView":50,
			"componentType":5126,
			"count":93,
			"type":"VEC2"
		},
		{
			"bufferView":51,
			"componentType":5123,
			"count":93,
			"type":"SCALAR"
		},
		{
			"bufferView":52,
			"componentType":5126,
			"count":150,
			"max":[
				0.45909976959228516,
				-1.0266417264938354,
				0.24104847013950348
			],
			"min":[
				0.1928781121969223,
				-2.218998908996582,
				-0.3490656912326813
			],
			"type":"VEC3"
		},
		{
			"bufferView":53,
			"componentType":5126,
			"count":150,
			"type":"VEC3"
		},
		{
			"bufferView":54,
			"componentType":5126,
			"count":150,
			"type":"VEC2"
		},
		{
			"bufferView":55,
			"componentType":5123,
			"count":150,
			"type":"SCALAR"
		}
	],
	"bufferViews":[
		{
			"buffer":0,
			"byteLength":1968,
			"byteOffset":0,
			"target":34962
		},
		{
			"buffer":0,
			"byteLength":1968,
			"byteOffset":1968,
			"target":34962
		},
		{
			"buffer":0,
			"byteLength":1312,
			"byteOffset":3936,
			"target":34962
		},
		{
			"buffer":0,
			"byteLength":348,
			"byteOffset":5248,
			"target":34963
		},
		{
			"buffer":0,
			"byteLength":864,
			"byteOffset":5596,
			"target":34962
		},
		{
			"buffer":0,
			"byteLength":864,
			"byteOffset":6460,
			"target":34962
		},
		{
			"buffer":0,
			"byteLength":576,
			"byteOffset":7324,
			"target":34962
		},
		{
			"buffer":0,
			"byteLength":144,
			"byteOffset":7900,
			"target":34963
		},
		{
			"buffer":0,
			"byteLength":792,
			"byteOffset":8044,
			"target":34962
		},
		{
			"buffer":0,
			"byteLength":792,
			"byteOffset":8836,
			"target":34962
		},
		{
			"buffer":0,
			"byteLength":528,
			"byteOffset":9628,
			"target":34962
		},
		{
			"buffer":0,
			"byteLength":132,
			"byteOffset":10156,
			"target":34963
		},
		{
			"buffer":0,
			"byteLength":2520,
			"byteOffset":10288,
			"target":34962
		},
		{
			"buffer":0,
			"byteLength":2520,
			"byteOffset":12808,
			"target":34962
		},
		{
			"buffer":0,
			"byteLength":1680,
			"byteOffset":15328,
			"target":34962
		},
		{
			"buffer":0,
			"byteLength":420,
			"byteOffset":17008,
			"target":34963
		},
		{
			"buffer":0,
			"byteLength":1728,
			"byteOffset":17428,
			"target":34962
		},
		{
			"buffer":0,
			"byteLength":1728,
			"byteOffset":19156,
			"target":34962
		},
		{
			"buffer":0,
			"byteLength":1152,
			"byteOffset":20884,
			"target":34962
		},
		{
			"buffer":0,
			"byteLength":288,
			"byteOffset":22036,
			"target":34963
		},
		{
			"buffer":0,
			"byteLength":1500,
			"byteOffset":22324,
			"target":34962
		},
		{
			"buffer":0,
			"byteLength":1500,
			"byteOffset":23824,
			"target":34962
		},
		{
			"buffer":0,
			"byteLength":1000,
			"byteOffset":25324,
			"target":34962
		},
		{
			"buffer":0,
			"byteLength":270,
			"byteOffset":26324,
			"target":34963
		},
		{
			"buffer":0,
			"byteLength":900,
			"byteOffset":26596,
			"target":34962
		},
		{
			"buffer":0,
			"byteLength":900,
			"byteOffset":27496,
			"target":34962
		},
		{
			"buffer":0,
			"byteLength":600,
			"byteOffset":28396,
			"target":34962
		},
		{
			"buffer":0,
			"byteLength":150,
			"byteOffset":28996,
			"target":34963
		},
		{
			"buffer":0,
			"byteLength":1728,
			"byteOffset":29148,
			"target":34962
		},
		{
			"buffer":0,
			"byteLength":1728,
			"byteOffset":30876,
			"target":34962
		},
		{
			"buffer":0,
			"byteLength":1152,
			"byteOffset":32604,
			"target":34962
		},
		{
			"buffer":0,
			"byteLength":288,
			"byteOffset":33756,
			"target":34963
		},
		{
			"buffer":0,
			"byteLength":1920,
			"byteOffset":34044,
			"target":34962
		},
		{
			"buffer":0,
			"byteLength":1920,
			"byteOffset":35964,
			"target":34962
		},
		{
			"buffer":0,
			"byteLength":1280,
			"byteOffset":37884,
			"target":34962
		},
		{
			"buffer":0,
			"byteLength":324,
			"byteOffset":39164,
			"target":34963
		},
		{
			"buffer":0,
			"byteLength":1260,
			"byteOffset":39488,
			"target":34962
		},
		{
			"buffer":0,
			"byteLength":1260,
			"byteOffset":40748,
			"target":34962
		},
		{
			"buffer":0,
			"byteLength":840,
			"byteOffset":42008,
			"target":34962
		},
		{
			"buffer":0,
			"byteLength":210,
			"byteOffset":42848,
			"target":34963
		},
		{
			"buffer":0,
			"byteLength":1008,
			"byteOffset":43060,
			"target":34962
		},
		{
			"buffer":0,
			"byteLength":1008,
			"byteOffset":44068,
			"target":34962
		},
		{
			"buffer":0,
			"byteLength":672,
			"byteOffset":45076,
			"target":34962
		},
		{
			"buffer":0,
			"byteLength":168,
			"byteOffset":45748,
			"target":34963
		},
		{
			"buffer":0,
			"byteLength":936,
			"byteOffset":45916,
			"target":34962
		},
		{
			"buffer":0,
			"byteLength":936,
			"byteOffset":46852,
			"target":34962
		},
		{
			"buffer":0,
			"byteLength":624,
			"byteOffset":47788,
			"target":34962
		},
		{
			"buffer":0,
			"byteLength":156,
			"byteOffset":48412,
			"target":34963
		},
		{
			"buffer":0,
			"byteLength":1116,
			"byteOffset":48568,
			"target":34962
		},
		{
			"buffer":0,
			"byteLength":1116,
			"byteOffset":49684,
			"target":34962
		},
		{
			"buffer":0,
			"byteLength":744,
			"byteOffset":50800,
			"target":34962
		},
		{
			"buffer":0,
			"byteLength":186,
			"byteOffset":51544,
			"target":34963
		},
		{
			"buffer":0,
			"byteLength":1800,
			"byteOffset":51732,
			"target":34962
		},
		{
			"buffer":0,
			"byteLength":1800,
			"byteOffset":53532,
			"target":34962
		},
		{
			"buffer":0,
			"byteLength":1200,
			"byteOffset":55332,
			"target":34962
		},
		{
			"buffer":0,
			"byteLength":300,
			"byteOffset":56532,
			"target":34963
		}
	],
	"samplers":[
		{
			"magFilter":9728,
			"minFilter":9984
		}
	],
	"buffers":[
		{
			"byteLength":56832,
			"uri":"chara.bin"
		}
	]
}
