{
	"asset":{
		"generator":"Khronos glTF Blender I/O v4.2.60",
		"version":"2.0"
	},
	"scene":0,
	"scenes":[
		{
			"name":"Scene",
			"nodes":[
				6
			]
		}
	],
	"nodes":[
		{
			"name":"Head",
			"rotation":[
				0.7071067690849304,
				-1.376787679419067e-07,
				-1.376787679419067e-07,
				0.7071067690849304
			],
			"translation":[
				0,
				0.3520365357398987,
				1.3386926651000977
			]
		},
		{
			"name":"Tail",
			"rotation":[
				-0.7071067690849304,
				0,
				0,
				0.7071067690849304
			],
			"translation":[
				0,
				0.6292120218276978,
				-1.1213738918304443
			]
		},
		{
			"children":[
				0,
				1
			],
			"name":"Body",
			"translation":[
				0,
				-0.2854486405849457,
				0
			]
		},
		{
			"mesh":0,
			"name":"Body",
			"skin":0
		},
		{
			"mesh":1,
			"name":"Head",
			"skin":0
		},
		{
			"mesh":2,
			"name":"Tail",
			"skin":0
		},
		{
			"children":[
				3,
				4,
				5,
				2
			],
			"name":"Armature"
		}
	],
	"animations":[
		{
			"channels":[
				{
					"sampler":0,
					"target":{
						"node":2,
						"path":"translation"
					}
				},
				{
					"sampler":1,
					"target":{
						"node":2,
						"path":"rotation"
					}
				},
				{
					"sampler":2,
					"target":{
						"node":2,
						"path":"scale"
					}
				},
				{
					"sampler":3,
					"target":{
						"node":0,
						"path":"translation"
					}
				},
				{
					"sampler":4,
					"target":{
						"node":0,
						"path":"rotation"
					}
				},
				{
					"sampler":5,
					"target":{
						"node":0,
						"path":"scale"
					}
				},
				{
					"sampler":6,
					"target":{
						"node":1,
						"path":"translation"
					}
				},
				{
					"sampler":7,
					"target":{
						"node":1,
						"path":"rotation"
					}
				},
				{
					"sampler":8,
					"target":{
						"node":1,
						"path":"scale"
					}
				}
			],
			"name":"Swim",
			"samplers":[
				{
					"input":19,
					"interpolation":"STEP",
					"output":20
				},
				{
					"input":19,
					"interpolation":"STEP",
					"output":21
				},
				{
					"input":19,
					"interpolation":"STEP",
					"output":22
				},
				{
					"input":19,
					"interpolation":"STEP",
					"output":23
				},
				{
					"input":24,
					"interpolation":"LINEAR",
					"output":25
				},
				{
					"input":19,
					"interpolation":"STEP",
					"output":26
				},
				{
					"input":19,
					"interpolation":"STEP",
					"output":27
				},
				{
					"input":24,
					"interpolation":"LINEAR",
					"output":28
				},
				{
					"input":19,
					"interpolation":"STEP",
					"output":29
				}
			]
		},
		{
			"channels":[
				{
					"sampler":0,
					"target":{
						"node":2,
						"path":"translation"
					}
				},
				{
					"sampler":1,
					"target":{
						"node":2,
						"path":"rotation"
					}
				},
				{
					"sampler":2,
					"target":{
						"node":2,
						"path":"scale"
					}
				},
				{
					"sampler":3,
					"target":{
						"node":0,
						"path":"translation"
					}
				},
				{
					"sampler":4,
					"target":{
						"node":0,
						"path":"rotation"
					}
				},
				{
					"sampler":5,
					"target":{
						"node":0,
						"path":"scale"
					}
				},
				{
					"sampler":6,
					"target":{
						"node":1,
						"path":"translation"
					}
				},
				{
					"sampler":7,
					"target":{
						"node":1,
						"path":"rotation"
					}
				},
				{
					"sampler":8,
					"target":{
						"node":1,
						"path":"scale"
					}
				}
			],
			"name":"Whip",
			"samplers":[
				{
					"input":19,
					"interpolation":"STEP",
					"output":30
				},
				{
					"input":19,
					"interpolation":"STEP",
					"output":31
				},
				{
					"input":19,
					"interpolation":"STEP",
					"output":32
				},
				{
					"input":19,
					"interpolation":"STEP",
					"output":33
				},
				{
					"input":24,
					"interpolation":"LINEAR",
					"output":34
				},
				{
					"input":19,
					"interpolation":"STEP",
					"output":35
				},
				{
					"input":19,
					"interpolation":"STEP",
					"output":36
				},
				{
					"input":24,
					"interpolation":"LINEAR",
					"output":37
				},
				{
					"input":19,
					"interpolation":"STEP",
					"output":38
				}
			]
		}
	],
	"materials":[
		{
			"doubleSided":true,
			"name":"Fish",
			"pbrMetallicRoughness":{
				"baseColorTexture":{
					"index":0
				},
				"metallicFactor":0.40506330132484436,
				"roughnessFactor":0.6518987417221069
			}
		}
	],
	"meshes":[
		{
			"name":"Cube.001",
			"primitives":[
				{
					"attributes":{
						"POSITION":0,
						"NORMAL":1,
						"TEXCOORD_0":2,
						"JOINTS_0":3,
						"WEIGHTS_0":4
					},
					"indices":5,
					"material":0
				}
			]
		},
		{
			"name":"Cube",
			"primitives":[
				{
					"attributes":{
						"POSITION":7,
						"NORMAL":8,
						"TEXCOORD_0":9,
						"JOINTS_0":10,
						"WEIGHTS_0":11
					},
					"indices":12,
					"material":0
				}
			]
		},
		{
			"name":"Cube.002",
			"primitives":[
				{
					"attributes":{
						"POSITION":13,
						"NORMAL":14,
						"TEXCOORD_0":15,
						"JOINTS_0":16,
						"WEIGHTS_0":17
					},
					"indices":18,
					"material":0
				}
			]
		}
	],
	"textures":[
		{
			"sampler":0,
			"source":0
		}
	],
	"images":[
		{
			"mimeType":"image/png",
			"name":"trout",
			"uri":"trout.png"
		}
	],
	"skins":[
		{
			"inverseBindMatrices":6,
			"joints":[
				2,
				0,
				1
			],
			"name":"Armature"
		}
	],
	"accessors":[
		{
			"bufferView":0,
			"componentType":5126,
			"count":33,
			"max":[
				0.40546318888664246,
				1.032131314277649,
				0.998536229133606
			],
			"min":[
				-0.4054623246192932,
				-0.6492912769317627,
				-0.9665356874465942
			],
			"type":"VEC3"
		},
		{
			"bufferView":1,
			"componentType":5126,
			"count":33,
			"type":"VEC3"
		},
		{
			"bufferView":2,
			"componentType":5126,
			"count":33,
			"type":"VEC2"
		},
		{
			"bufferView":3,
			"componentType":5121,
			"count":33,
			"type":"VEC4"
		},
		{
			"bufferView":4,
			"componentType":5126,
			"count":33,
			"type":"VEC4"
		},
		{
			"bufferView":5,
			"componentType":5123,
			"count":84,
			"type":"SCALAR"
		},
		{
			"bufferView":6,
			"componentType":5126,
			"count":3,
			"type":"MAT4"
		},
		{
			"bufferView":7,
			"componentType":5126,
			"count":39,
			"max":[
				0.7963148355484009,
				0.7368178963661194,
				3.211514949798584
			],
			"min":[
				-0.7963148355484009,
				-0.6492912769317627,
				0.9985358715057373
			],
			"type":"VEC3"
		},
		{
			"bufferView":8,
			"componentType":5126,
			"count":39,
			"type":"VEC3"
		},
		{
			"bufferView":9,
			"componentType":5126,
			"count":39,
			"type":"VEC2"
		},
		{
			"bufferView":10,
			"componentType":5121,
			"count":39,
			"type":"VEC4"
		},
		{
			"bufferView":11,
			"componentType":5126,
			"count":39,
			"type":"VEC4"
		},
		{
			"bufferView":12,
			"componentType":5123,
			"count":96,
			"type":"SCALAR"
		},
		{
			"bufferView":13,
			"componentType":5126,
			"count":31,
			"max":[
				0.24517330527305603,
				0.9762392044067383,
				-0.8150182962417603
			],
			"min":[
				-0.24517464637756348,
				-0.4848008155822754,
				-3.425290584564209
			],
			"type":"VEC3"
		},
		{
			"bufferView":14,
			"componentType":5126,
			"count":31,
			"type":"VEC3"
		},
		{
			"bufferView":15,
			"componentType":5126,
			"count":31,
			"type":"VEC2"
		},
		{
			"bufferView":16,
			"componentType":5121,
			"count":31,
			"type":"VEC4"
		},
		{
			"bufferView":17,
			"componentType":5126,
			"count":31,
			"type":"VEC4"
		},
		{
			"bufferView":18,
			"componentType":5123,
			"count":78,
			"type":"SCALAR"
		},
		{
			"bufferView":19,
			"componentType":5126,
			"count":2,
			"max":[
				0.9833333333333333
			],
			"min":[
				0
			],
			"type":"SCALAR"
		},
		{
			"bufferView":20,
			"componentType":5126,
			"count":2,
			"type":"VEC3"
		},
		{
			"bufferView":21,
			"componentType":5126,
			"count":2,
			"type":"VEC4"
		},
		{
			"bufferView":22,
			"componentType":5126,
			"count":2,
			"type":"VEC3"
		},
		{
			"bufferView":23,
			"componentType":5126,
			"count":2,
			"type":"VEC3"
		},
		{
			"bufferView":24,
			"componentType":5126,
			"count":60,
			"max":[
				0.9833333333333333
			],
			"min":[
				0
			],
			"type":"SCALAR"
		},
		{
			"bufferView":25,
			"componentType":5126,
			"count":60,
			"type":"VEC4"
		},
		{
			"bufferView":26,
			"componentType":5126,
			"count":2,
			"type":"VEC3"
		},
		{
			"bufferView":27,
			"componentType":5126,
			"count":2,
			"type":"VEC3"
		},
		{
			"bufferView":28,
			"componentType":5126,
			"count":60,
			"type":"VEC4"
		},
		{
			"bufferView":29,
			"componentType":5126,
			"count":2,
			"type":"VEC3"
		},
		{
			"bufferView":30,
			"componentType":5126,
			"count":2,
			"type":"VEC3"
		},
		{
			"bufferView":31,
			"componentType":5126,
			"count":2,
			"type":"VEC4"
		},
		{
			"bufferView":32,
			"componentType":5126,
			"count":2,
			"type":"VEC3"
		},
		{
			"bufferView":33,
			"componentType":5126,
			"count":2,
			"type":"VEC3"
		},
		{
			"bufferView":34,
			"componentType":5126,
			"count":60,
			"type":"VEC4"
		},
		{
			"bufferView":35,
			"componentType":5126,
			"count":2,
			"type":"VEC3"
		},
		{
			"bufferView":36,
			"componentType":5126,
			"count":2,
			"type":"VEC3"
		},
		{
			"bufferView":37,
			"componentType":5126,
			"count":60,
			"type":"VEC4"
		},
		{
			"bufferView":38,
			"componentType":5126,
			"count":2,
			"type":"VEC3"
		}
	],
	"bufferViews":[
		{
			"buffer":0,
			"byteLength":396,
			"byteOffset":0,
			"target":34962
		},
		{
			"buffer":0,
			"byteLength":396,
			"byteOffset":396,
			"target":34962
		},
		{
			"buffer":0,
			"byteLength":264,
			"byteOffset":792,
			"target":34962
		},
		{
			"buffer":0,
			"byteLength":132,
			"byteOffset":1056,
			"target":34962
		},
		{
			"buffer":0,
			"byteLength":528,
			"byteOffset":1188,
			"target":34962
		},
		{
			"buffer":0,
			"byteLength":168,
			"byteOffset":1716,
			"target":34963
		},
		{
			"buffer":0,
			"byteLength":192,
			"byteOffset":1884
		},
		{
			"buffer":0,
			"byteLength":468,
			"byteOffset":2076,
			"target":34962
		},
		{
			"buffer":0,
			"byteLength":468,
			"byteOffset":2544,
			"target":34962
		},
		{
			"buffer":0,
			"byteLength":312,
			"byteOffset":3012,
			"target":34962
		},
		{
			"buffer":0,
			"byteLength":156,
			"byteOffset":3324,
			"target":34962
		},
		{
			"buffer":0,
			"byteLength":624,
			"byteOffset":3480,
			"target":34962
		},
		{
			"buffer":0,
			"byteLength":192,
			"byteOffset":4104,
			"target":34963
		},
		{
			"buffer":0,
			"byteLength":372,
			"byteOffset":4296,
			"target":34962
		},
		{
			"buffer":0,
			"byteLength":372,
			"byteOffset":4668,
			"target":34962
		},
		{
			"buffer":0,
			"byteLength":248,
			"byteOffset":5040,
			"target":34962
		},
		{
			"buffer":0,
			"byteLength":124,
			"byteOffset":5288,
			"target":34962
		},
		{
			"buffer":0,
			"byteLength":496,
			"byteOffset":5412,
			"target":34962
		},
		{
			"buffer":0,
			"byteLength":156,
			"byteOffset":5908,
			"target":34963
		},
		{
			"buffer":0,
			"byteLength":8,
			"byteOffset":6064
		},
		{
			"buffer":0,
			"byteLength":24,
			"byteOffset":6072
		},
		{
			"buffer":0,
			"byteLength":32,
			"byteOffset":6096
		},
		{
			"buffer":0,
			"byteLength":24,
			"byteOffset":6128
		},
		{
			"buffer":0,
			"byteLength":24,
			"byteOffset":6152
		},
		{
			"buffer":0,
			"byteLength":240,
			"byteOffset":6176
		},
		{
			"buffer":0,
			"byteLength":960,
			"byteOffset":6416
		},
		{
			"buffer":0,
			"byteLength":24,
			"byteOffset":7376
		},
		{
			"buffer":0,
			"byteLength":24,
			"byteOffset":7400
		},
		{
			"buffer":0,
			"byteLength":960,
			"byteOffset":7424
		},
		{
			"buffer":0,
			"byteLength":24,
			"byteOffset":8384
		},
		{
			"buffer":0,
			"byteLength":24,
			"byteOffset":8408
		},
		{
			"buffer":0,
			"byteLength":32,
			"byteOffset":8432
		},
		{
			"buffer":0,
			"byteLength":24,
			"byteOffset":8464
		},
		{
			"buffer":0,
			"byteLength":24,
			"byteOffset":8488
		},
		{
			"buffer":0,
			"byteLength":960,
			"byteOffset":8512
		},
		{
			"buffer":0,
			"byteLength":24,
			"byteOffset":9472
		},
		{
			"buffer":0,
			"byteLength":24,
			"byteOffset":9496
		},
		{
			"buffer":0,
			"byteLength":960,
			"byteOffset":9520
		},
		{
			"buffer":0,
			"byteLength":24,
			"byteOffset":10480
		}
	],
	"samplers":[
		{
			"magFilter":9728,
			"minFilter":9984
		}
	],
	"buffers":[
		{
			"byteLength":10504,
			"uri":"trout.bin"
		}
	]
}
