{
	"asset":{
		"generator":"Khronos glTF Blender I/O v4.0.44",
		"version":"2.0"
	},
	"extensionsUsed":[
		"KHR_materials_specular",
		"KHR_materials_ior"
	],
	"scene":0,
	"scenes":[
		{
			"name":"Scene",
			"nodes":[
				22
			]
		}
	],
	"nodes":[
		{
			"name":"Forearm.L",
			"rotation":[
				0.2553838789463043,
				0.03095686249434948,
				0.021019764244556427,
				0.966115415096283
			],
			"scale":[
				0.9999999403953552,
				1,
				0.9999999403953552
			],
			"translation":[
				-2.7939677238464355e-09,
				0.582697868347168,
				3.259629011154175e-08
			]
		},
		{
			"children":[
				0
			],
			"name":"Arm.L",
			"rotation":[
				0.061885710805654526,
				0.13403452932834625,
				-0.9841400980949402,
				0.09835230559110641
			],
			"scale":[
				0.9999998211860657,
				1,
				0.9999999403953552
			],
			"translation":[
				0.4331204891204834,
				0.7790514230728149,
				-0.021423600614070892
			]
		},
		{
			"name":"Head",
			"rotation":[
				-0.26129189133644104,
				0.16461724042892456,
				-0.04751061648130417,
				0.949931800365448
			],
			"scale":[
				1,
				1,
				0.9999999403953552
			],
			"translation":[
				-4.6566128730773926e-09,
				0.8852300643920898,
				-2.2351741790771484e-08
			]
		},
		{
			"name":"Forearm.R",
			"rotation":[
				0.625537633895874,
				0.1305922120809555,
				0.10345068573951721,
				0.7621983289718628
			],
			"scale":[
				1,
				1,
				0.9999999403953552
			],
			"translation":[
				-2.2351741790771484e-08,
				0.5829697251319885,
				2.2351741790771484e-08
			]
		},
		{
			"children":[
				3
			],
			"name":"Arm.R",
			"rotation":[
				-0.13377289474010468,
				0.24322177469730377,
				0.4909741282463074,
				0.8257677555084229
			],
			"scale":[
				1,
				0.9999999403953552,
				1
			],
			"translation":[
				-0.38889655470848083,
				0.7761412858963013,
				0.003581702709197998
			]
		},
		{
			"children":[
				1,
				2,
				4
			],
			"name":"Chest",
			"rotation":[
				0.09500489383935928,
				-0.2085968405008316,
				0.009456027299165726,
				0.9733303785324097
			],
			"scale":[
				0.9999999403953552,
				0.9999999403953552,
				0.9999999403953552
			],
			"translation":[
				-8.569180920403596e-10,
				0.7389311194419861,
				-1.539633753822045e-09
			]
		},
		{
			"name":"Calf.L",
			"rotation":[
				0.10452932119369507,
				-0.011159522458910942,
				0.13034175336360931,
				0.9858803749084473
			],
			"scale":[
				0.9999999403953552,
				0.9999998807907104,
				1.0000001192092896
			],
			"translation":[
				3.725290298461914e-09,
				1.1522791385650635,
				-4.470348358154297e-08
			]
		},
		{
			"children":[
				6
			],
			"name":"Leg.L",
			"rotation":[
				-0.7558800578117371,
				0.1560056060552597,
				-0.6299249529838562,
				0.08661576360464096
			],
			"scale":[
				1.0000065565109253,
				1.0000005960464478,
				1.000001311302185
			],
			"translation":[
				0.4195632040500641,
				0.019229169934988022,
				-0.022877240553498268
			]
		},
		{
			"name":"Calf.R",
			"rotation":[
				-0.1220780685544014,
				-0.18000267446041107,
				-0.30414026975631714,
				0.9274668097496033
			],
			"scale":[
				1,
				0.9999999403953552,
				1
			],
			"translation":[
				-1.0011717677116394e-08,
				1.1522791385650635,
				-8.381903171539307e-09
			]
		},
		{
			"children":[
				8
			],
			"name":"Leg.R",
			"rotation":[
				0.7556453943252563,
				-0.08890879899263382,
				-0.6462168097496033,
				0.05915350839495659
			],
			"scale":[
				1.000007152557373,
				1.0000004768371582,
				1.000001072883606
			],
			"translation":[
				-0.37539783120155334,
				0.019229169934988022,
				-0.022877437993884087
			]
		},
		{
			"children":[
				5,
				7,
				9
			],
			"name":"Spine",
			"rotation":[
				-0.03549156337976456,
				1.191342207107482e-07,
				-4.230925387815887e-09,
				0.9993700385093689
			],
			"translation":[
				-0.02208268642425537,
				0.0544019490480423,
				-0.06292352080345154
			]
		},
		{
			"mesh":0,
			"name":"Arm.L",
			"skin":0
		},
		{
			"mesh":1,
			"name":"Arm.R",
			"skin":0
		},
		{
			"mesh":2,
			"name":"Calf.L",
			"skin":0
		},
		{
			"mesh":3,
			"name":"Calf.R",
			"skin":0
		},
		{
			"mesh":4,
			"name":"Chest",
			"skin":0
		},
		{
			"mesh":5,
			"name":"Hand.L",
			"skin":0
		},
		{
			"mesh":6,
			"name":"Hand.R",
			"skin":0
		},
		{
			"mesh":7,
			"name":"Head",
			"skin":0
		},
		{
			"mesh":8,
			"name":"Spine",
			"skin":0
		},
		{
			"mesh":9,
			"name":"Thigh.L",
			"skin":0
		},
		{
			"mesh":10,
			"name":"Thigh.R",
			"skin":0
		},
		{
			"children":[
				11,
				12,
				13,
				14,
				15,
				16,
				17,
				18,
				19,
				20,
				21,
				10
			],
			"name":"Skele"
		}
	],
	"materials":[
		{
			"alphaCutoff":0.5,
			"alphaMode":"MASK",
			"doubleSided":true,
			"extensions":{
				"KHR_materials_specular":{
					"specularFactor":0
				},
				"KHR_materials_ior":{
					"ior":1.4500000476837158
				}
			},
			"name":"Material",
			"pbrMetallicRoughness":{
				"baseColorTexture":{
					"index":0
				},
				"metallicFactor":0,
				"roughnessFactor":0
			}
		}
	],
	"meshes":[
		{
			"name":"Arm.L",
			"primitives":[
				{
					"attributes":{
						"POSITION":0,
						"NORMAL":1,
						"TEXCOORD_0":2,
						"JOINTS_0":3,
						"WEIGHTS_0":4
					},
					"indices":5,
					"material":0
				}
			]
		},
		{
			"name":"Arm.R",
			"primitives":[
				{
					"attributes":{
						"POSITION":7,
						"NORMAL":8,
						"TEXCOORD_0":9,
						"JOINTS_0":10,
						"WEIGHTS_0":11
					},
					"indices":12,
					"material":0
				}
			]
		},
		{
			"name":"Calf.L",
			"primitives":[
				{
					"attributes":{
						"POSITION":13,
						"NORMAL":14,
						"TEXCOORD_0":15,
						"JOINTS_0":16,
						"WEIGHTS_0":17
					},
					"indices":18,
					"material":0
				}
			]
		},
		{
			"name":"Calf.R",
			"primitives":[
				{
					"attributes":{
						"POSITION":19,
						"NORMAL":20,
						"TEXCOORD_0":21,
						"JOINTS_0":22,
						"WEIGHTS_0":23
					},
					"indices":24,
					"material":0
				}
			]
		},
		{
			"name":"Chest",
			"primitives":[
				{
					"attributes":{
						"POSITION":25,
						"NORMAL":26,
						"TEXCOORD_0":27,
						"JOINTS_0":28,
						"WEIGHTS_0":29
					},
					"indices":30,
					"material":0
				}
			]
		},
		{
			"name":"Hand.L",
			"primitives":[
				{
					"attributes":{
						"POSITION":31,
						"NORMAL":32,
						"TEXCOORD_0":33,
						"JOINTS_0":34,
						"WEIGHTS_0":35
					},
					"indices":36,
					"material":0
				}
			]
		},
		{
			"name":"Hand.R",
			"primitives":[
				{
					"attributes":{
						"POSITION":37,
						"NORMAL":38,
						"TEXCOORD_0":39,
						"JOINTS_0":40,
						"WEIGHTS_0":41
					},
					"indices":42,
					"material":0
				}
			]
		},
		{
			"name":"Head",
			"primitives":[
				{
					"attributes":{
						"POSITION":43,
						"NORMAL":44,
						"TEXCOORD_0":45,
						"JOINTS_0":46,
						"WEIGHTS_0":47
					},
					"indices":48,
					"material":0
				}
			]
		},
		{
			"name":"Spine",
			"primitives":[
				{
					"attributes":{
						"POSITION":49,
						"NORMAL":50,
						"TEXCOORD_0":51,
						"JOINTS_0":52,
						"WEIGHTS_0":53
					},
					"indices":54,
					"material":0
				}
			]
		},
		{
			"name":"Thigh.L",
			"primitives":[
				{
					"attributes":{
						"POSITION":55,
						"NORMAL":56,
						"TEXCOORD_0":57,
						"JOINTS_0":58,
						"WEIGHTS_0":59
					},
					"indices":60,
					"material":0
				}
			]
		},
		{
			"name":"Thigh.R",
			"primitives":[
				{
					"attributes":{
						"POSITION":61,
						"NORMAL":62,
						"TEXCOORD_0":63,
						"JOINTS_0":64,
						"WEIGHTS_0":65
					},
					"indices":66,
					"material":0
				}
			]
		}
	],
	"textures":[
		{
			"sampler":0,
			"source":0
		}
	],
	"images":[
		{
			"mimeType":"image/png",
			"name":"skele128",
			"uri":"skele128.png"
		}
	],
	"skins":[
		{
			"inverseBindMatrices":6,
			"joints":[
				10,
				5,
				1,
				0,
				2,
				4,
				3,
				7,
				6,
				9,
				8
			],
			"name":"Skele"
		}
	],
	"accessors":[
		{
			"bufferView":0,
			"componentType":5126,
			"count":30,
			"max":[
				0.9403024315834045,
				1.6296974420547485,
				-0.08904572576284409
			],
			"min":[
				0.40866532921791077,
				1.2871665954589844,
				-0.20155249536037445
			],
			"type":"VEC3"
		},
		{
			"bufferView":1,
			"componentType":5126,
			"count":30,
			"type":"VEC3"
		},
		{
			"bufferView":2,
			"componentType":5126,
			"count":30,
			"type":"VEC2"
		},
		{
			"bufferView":3,
			"componentType":5121,
			"count":30,
			"type":"VEC4"
		},
		{
			"bufferView":4,
			"componentType":5126,
			"count":30,
			"type":"VEC4"
		},
		{
			"bufferView":5,
			"componentType":5123,
			"count":30,
			"type":"SCALAR"
		},
		{
			"bufferView":6,
			"componentType":5126,
			"count":11,
			"type":"MAT4"
		},
		{
			"bufferView":7,
			"componentType":5126,
			"count":30,
			"max":[
				-0.4529477655887604,
				1.6296974420547485,
				-0.08904574066400528
			],
			"min":[
				-0.9845847487449646,
				1.2871665954589844,
				-0.20155248045921326
			],
			"type":"VEC3"
		},
		{
			"bufferView":8,
			"componentType":5126,
			"count":30,
			"type":"VEC3"
		},
		{
			"bufferView":9,
			"componentType":5126,
			"count":30,
			"type":"VEC2"
		},
		{
			"bufferView":10,
			"componentType":5121,
			"count":30,
			"type":"VEC4"
		},
		{
			"bufferView":11,
			"componentType":5126,
			"count":30,
			"type":"VEC4"
		},
		{
			"bufferView":12,
			"componentType":5123,
			"count":30,
			"type":"SCALAR"
		},
		{
			"bufferView":13,
			"componentType":5126,
			"count":120,
			"max":[
				0.31862208247184753,
				-0.98872971534729,
				0.23317690193653107
			],
			"min":[
				0.06775161623954773,
				-2.479313611984253,
				-0.24337846040725708
			],
			"type":"VEC3"
		},
		{
			"bufferView":14,
			"componentType":5126,
			"count":120,
			"type":"VEC3"
		},
		{
			"bufferView":15,
			"componentType":5126,
			"count":120,
			"type":"VEC2"
		},
		{
			"bufferView":16,
			"componentType":5121,
			"count":120,
			"type":"VEC4"
		},
		{
			"bufferView":17,
			"componentType":5126,
			"count":120,
			"type":"VEC4"
		},
		{
			"bufferView":18,
			"componentType":5123,
			"count":120,
			"type":"SCALAR"
		},
		{
			"bufferView":19,
			"componentType":5126,
			"count":120,
			"max":[
				-0.11203397810459137,
				-0.98872971534729,
				0.2331767976284027
			],
			"min":[
				-0.36290445923805237,
				-2.479313373565674,
				-0.2433784455060959
			],
			"type":"VEC3"
		},
		{
			"bufferView":20,
			"componentType":5126,
			"count":120,
			"type":"VEC3"
		},
		{
			"bufferView":21,
			"componentType":5126,
			"count":120,
			"type":"VEC2"
		},
		{
			"bufferView":22,
			"componentType":5121,
			"count":120,
			"type":"VEC4"
		},
		{
			"bufferView":23,
			"componentType":5126,
			"count":120,
			"type":"VEC4"
		},
		{
			"bufferView":24,
			"componentType":5123,
			"count":120,
			"type":"SCALAR"
		},
		{
			"bufferView":25,
			"componentType":5126,
			"count":132,
			"max":[
				0.41420778632164,
				1.7064802646636963,
				0.2989482581615448
			],
			"min":[
				-0.4584902226924896,
				0.7050025463104248,
				-0.3244679570198059
			],
			"type":"VEC3"
		},
		{
			"bufferView":26,
			"componentType":5126,
			"count":132,
			"type":"VEC3"
		},
		{
			"bufferView":27,
			"componentType":5126,
			"count":132,
			"type":"VEC2"
		},
		{
			"bufferView":28,
			"componentType":5121,
			"count":132,
			"type":"VEC4"
		},
		{
			"bufferView":29,
			"componentType":5126,
			"count":132,
			"type":"VEC4"
		},
		{
			"bufferView":30,
			"componentType":5123,
			"count":132,
			"type":"SCALAR"
		},
		{
			"bufferView":31,
			"componentType":5126,
			"count":60,
			"max":[
				1.7763006687164307,
				1.361459493637085,
				-0.07130467891693115
			],
			"min":[
				0.9021583795547485,
				0.9566895365715027,
				-0.23357000946998596
			],
			"type":"VEC3"
		},
		{
			"bufferView":32,
			"componentType":5126,
			"count":60,
			"type":"VEC3"
		},
		{
			"bufferView":33,
			"componentType":5126,
			"count":60,
			"type":"VEC2"
		},
		{
			"bufferView":34,
			"componentType":5121,
			"count":60,
			"type":"VEC4"
		},
		{
			"bufferView":35,
			"componentType":5126,
			"count":60,
			"type":"VEC4"
		},
		{
			"bufferView":36,
			"componentType":5123,
			"count":60,
			"type":"SCALAR"
		},
		{
			"bufferView":37,
			"componentType":5126,
			"count":60,
			"max":[
				-0.9464407563209534,
				1.3614596128463745,
				-0.07130470126867294
			],
			"min":[
				-1.8205828666687012,
				0.9566895365715027,
				-0.23357000946998596
			],
			"type":"VEC3"
		},
		{
			"bufferView":38,
			"componentType":5126,
			"count":60,
			"type":"VEC3"
		},
		{
			"bufferView":39,
			"componentType":5126,
			"count":60,
			"type":"VEC2"
		},
		{
			"bufferView":40,
			"componentType":5121,
			"count":60,
			"type":"VEC4"
		},
		{
			"bufferView":41,
			"componentType":5126,
			"count":60,
			"type":"VEC4"
		},
		{
			"bufferView":42,
			"componentType":5123,
			"count":60,
			"type":"SCALAR"
		},
		{
			"bufferView":43,
			"componentType":5126,
			"count":222,
			"max":[
				0.1899942010641098,
				2.4521234035491943,
				0.2801523804664612
			],
			"min":[
				-0.22808332741260529,
				1.6706743240356445,
				-0.2917618155479431
			],
			"type":"VEC3"
		},
		{
			"bufferView":44,
			"componentType":5126,
			"count":222,
			"type":"VEC3"
		},
		{
			"bufferView":45,
			"componentType":5126,
			"count":222,
			"type":"VEC2"
		},
		{
			"bufferView":46,
			"componentType":5121,
			"count":222,
			"type":"VEC4"
		},
		{
			"bufferView":47,
			"componentType":5126,
			"count":222,
			"type":"VEC4"
		},
		{
			"bufferView":48,
			"componentType":5123,
			"count":222,
			"type":"SCALAR"
		},
		{
			"bufferView":49,
			"componentType":5126,
			"count":186,
			"max":[
				0.4630078971385956,
				0.7918263077735901,
				0.1903182864189148
			],
			"min":[
				-0.507290244102478,
				-0.11657124757766724,
				-0.24550309777259827
			],
			"type":"VEC3"
		},
		{
			"bufferView":50,
			"componentType":5126,
			"count":186,
			"type":"VEC3"
		},
		{
			"bufferView":51,
			"componentType":5126,
			"count":186,
			"type":"VEC2"
		},
		{
			"bufferView":52,
			"componentType":5121,
			"count":186,
			"type":"VEC4"
		},
		{
			"bufferView":53,
			"componentType":5126,
			"count":186,
			"type":"VEC4"
		},
		{
			"bufferView":54,
			"componentType":5123,
			"count":186,
			"type":"SCALAR"
		},
		{
			"bufferView":55,
			"componentType":5126,
			"count":99,
			"max":[
				0.4689081609249115,
				0.05760125070810318,
				0.09842769056558609
			],
			"min":[
				0.06291328370571136,
				-1.092713713645935,
				-0.1477752923965454
			],
			"type":"VEC3"
		},
		{
			"bufferView":56,
			"componentType":5126,
			"count":99,
			"type":"VEC3"
		},
		{
			"bufferView":57,
			"componentType":5126,
			"count":99,
			"type":"VEC2"
		},
		{
			"bufferView":58,
			"componentType":5121,
			"count":99,
			"type":"VEC4"
		},
		{
			"bufferView":59,
			"componentType":5126,
			"count":99,
			"type":"VEC4"
		},
		{
			"bufferView":60,
			"componentType":5123,
			"count":99,
			"type":"SCALAR"
		},
		{
			"bufferView":61,
			"componentType":5126,
			"count":99,
			"max":[
				-0.1071956604719162,
				0.05760125070810318,
				0.09842769056558609
			],
			"min":[
				-0.513190507888794,
				-1.092713713645935,
				-0.1477752923965454
			],
			"type":"VEC3"
		},
		{
			"bufferView":62,
			"componentType":5126,
			"count":99,
			"type":"VEC3"
		},
		{
			"bufferView":63,
			"componentType":5126,
			"count":99,
			"type":"VEC2"
		},
		{
			"bufferView":64,
			"componentType":5121,
			"count":99,
			"type":"VEC4"
		},
		{
			"bufferView":65,
			"componentType":5126,
			"count":99,
			"type":"VEC4"
		},
		{
			"bufferView":66,
			"componentType":5123,
			"count":99,
			"type":"SCALAR"
		}
	],
	"bufferViews":[
		{
			"buffer":0,
			"byteLength":360,
			"byteOffset":0,
			"target":34962
		},
		{
			"buffer":0,
			"byteLength":360,
			"byteOffset":360,
			"target":34962
		},
		{
			"buffer":0,
			"byteLength":240,
			"byteOffset":720,
			"target":34962
		},
		{
			"buffer":0,
			"byteLength":120,
			"byteOffset":960,
			"target":34962
		},
		{
			"buffer":0,
			"byteLength":480,
			"byteOffset":1080,
			"target":34962
		},
		{
			"buffer":0,
			"byteLength":60,
			"byteOffset":1560,
			"target":34963
		},
		{
			"buffer":0,
			"byteLength":704,
			"byteOffset":1620
		},
		{
			"buffer":0,
			"byteLength":360,
			"byteOffset":2324,
			"target":34962
		},
		{
			"buffer":0,
			"byteLength":360,
			"byteOffset":2684,
			"target":34962
		},
		{
			"buffer":0,
			"byteLength":240,
			"byteOffset":3044,
			"target":34962
		},
		{
			"buffer":0,
			"byteLength":120,
			"byteOffset":3284,
			"target":34962
		},
		{
			"buffer":0,
			"byteLength":480,
			"byteOffset":3404,
			"target":34962
		},
		{
			"buffer":0,
			"byteLength":60,
			"byteOffset":3884,
			"target":34963
		},
		{
			"buffer":0,
			"byteLength":1440,
			"byteOffset":3944,
			"target":34962
		},
		{
			"buffer":0,
			"byteLength":1440,
			"byteOffset":5384,
			"target":34962
		},
		{
			"buffer":0,
			"byteLength":960,
			"byteOffset":6824,
			"target":34962
		},
		{
			"buffer":0,
			"byteLength":480,
			"byteOffset":7784,
			"target":34962
		},
		{
			"buffer":0,
			"byteLength":1920,
			"byteOffset":8264,
			"target":34962
		},
		{
			"buffer":0,
			"byteLength":240,
			"byteOffset":10184,
			"target":34963
		},
		{
			"buffer":0,
			"byteLength":1440,
			"byteOffset":10424,
			"target":34962
		},
		{
			"buffer":0,
			"byteLength":1440,
			"byteOffset":11864,
			"target":34962
		},
		{
			"buffer":0,
			"byteLength":960,
			"byteOffset":13304,
			"target":34962
		},
		{
			"buffer":0,
			"byteLength":480,
			"byteOffset":14264,
			"target":34962
		},
		{
			"buffer":0,
			"byteLength":1920,
			"byteOffset":14744,
			"target":34962
		},
		{
			"buffer":0,
			"byteLength":240,
			"byteOffset":16664,
			"target":34963
		},
		{
			"buffer":0,
			"byteLength":1584,
			"byteOffset":16904,
			"target":34962
		},
		{
			"buffer":0,
			"byteLength":1584,
			"byteOffset":18488,
			"target":34962
		},
		{
			"buffer":0,
			"byteLength":1056,
			"byteOffset":20072,
			"target":34962
		},
		{
			"buffer":0,
			"byteLength":528,
			"byteOffset":21128,
			"target":34962
		},
		{
			"buffer":0,
			"byteLength":2112,
			"byteOffset":21656,
			"target":34962
		},
		{
			"buffer":0,
			"byteLength":264,
			"byteOffset":23768,
			"target":34963
		},
		{
			"buffer":0,
			"byteLength":720,
			"byteOffset":24032,
			"target":34962
		},
		{
			"buffer":0,
			"byteLength":720,
			"byteOffset":24752,
			"target":34962
		},
		{
			"buffer":0,
			"byteLength":480,
			"byteOffset":25472,
			"target":34962
		},
		{
			"buffer":0,
			"byteLength":240,
			"byteOffset":25952,
			"target":34962
		},
		{
			"buffer":0,
			"byteLength":960,
			"byteOffset":26192,
			"target":34962
		},
		{
			"buffer":0,
			"byteLength":120,
			"byteOffset":27152,
			"target":34963
		},
		{
			"buffer":0,
			"byteLength":720,
			"byteOffset":27272,
			"target":34962
		},
		{
			"buffer":0,
			"byteLength":720,
			"byteOffset":27992,
			"target":34962
		},
		{
			"buffer":0,
			"byteLength":480,
			"byteOffset":28712,
			"target":34962
		},
		{
			"buffer":0,
			"byteLength":240,
			"byteOffset":29192,
			"target":34962
		},
		{
			"buffer":0,
			"byteLength":960,
			"byteOffset":29432,
			"target":34962
		},
		{
			"buffer":0,
			"byteLength":120,
			"byteOffset":30392,
			"target":34963
		},
		{
			"buffer":0,
			"byteLength":2664,
			"byteOffset":30512,
			"target":34962
		},
		{
			"buffer":0,
			"byteLength":2664,
			"byteOffset":33176,
			"target":34962
		},
		{
			"buffer":0,
			"byteLength":1776,
			"byteOffset":35840,
			"target":34962
		},
		{
			"buffer":0,
			"byteLength":888,
			"byteOffset":37616,
			"target":34962
		},
		{
			"buffer":0,
			"byteLength":3552,
			"byteOffset":38504,
			"target":34962
		},
		{
			"buffer":0,
			"byteLength":444,
			"byteOffset":42056,
			"target":34963
		},
		{
			"buffer":0,
			"byteLength":2232,
			"byteOffset":42500,
			"target":34962
		},
		{
			"buffer":0,
			"byteLength":2232,
			"byteOffset":44732,
			"target":34962
		},
		{
			"buffer":0,
			"byteLength":1488,
			"byteOffset":46964,
			"target":34962
		},
		{
			"buffer":0,
			"byteLength":744,
			"byteOffset":48452,
			"target":34962
		},
		{
			"buffer":0,
			"byteLength":2976,
			"byteOffset":49196,
			"target":34962
		},
		{
			"buffer":0,
			"byteLength":372,
			"byteOffset":52172,
			"target":34963
		},
		{
			"buffer":0,
			"byteLength":1188,
			"byteOffset":52544,
			"target":34962
		},
		{
			"buffer":0,
			"byteLength":1188,
			"byteOffset":53732,
			"target":34962
		},
		{
			"buffer":0,
			"byteLength":792,
			"byteOffset":54920,
			"target":34962
		},
		{
			"buffer":0,
			"byteLength":396,
			"byteOffset":55712,
			"target":34962
		},
		{
			"buffer":0,
			"byteLength":1584,
			"byteOffset":56108,
			"target":34962
		},
		{
			"buffer":0,
			"byteLength":198,
			"byteOffset":57692,
			"target":34963
		},
		{
			"buffer":0,
			"byteLength":1188,
			"byteOffset":57892,
			"target":34962
		},
		{
			"buffer":0,
			"byteLength":1188,
			"byteOffset":59080,
			"target":34962
		},
		{
			"buffer":0,
			"byteLength":792,
			"byteOffset":60268,
			"target":34962
		},
		{
			"buffer":0,
			"byteLength":396,
			"byteOffset":61060,
			"target":34962
		},
		{
			"buffer":0,
			"byteLength":1584,
			"byteOffset":61456,
			"target":34962
		},
		{
			"buffer":0,
			"byteLength":198,
			"byteOffset":63040,
			"target":34963
		}
	],
	"samplers":[
		{
			"magFilter":9728,
			"minFilter":9984
		}
	],
	"buffers":[
		{
			"byteLength":63240,
			"uri":"skelePSX.bin"
		}
	]
}
