{
	"asset":{
		"generator":"Khronos glTF Blender I/O v4.0.43",
		"version":"2.0"
	},
	"scene":0,
	"scenes":[
		{
			"name":"Scene",
			"nodes":[
				10
			]
		}
	],
	"nodes":[
		{
			"name":"Bone.001",
			"translation":[
				4.769952255401222e-08,
				4,
				-4
			]
		},
		{
			"name":"Bone.002",
			"translation":[
				4.769952255401222e-08,
				-4,
				-4
			]
		},
		{
			"name":"Bone.003",
			"translation":[
				-4.769952255401222e-08,
				4,
				4
			]
		},
		{
			"name":"Bone.004",
			"translation":[
				-4.769952255401222e-08,
				-4,
				4
			]
		},
		{
			"children":[
				0,
				1,
				2,
				3
			],
			"name":"Bone"
		},
		{
			"mesh":0,
			"name":"Cube",
			"skin":0
		},
		{
			"mesh":1,
			"name":"Cube.001",
			"skin":0
		},
		{
			"mesh":2,
			"name":"Cube.002",
			"skin":0
		},
		{
			"mesh":3,
			"name":"Cube.003",
			"skin":0
		},
		{
			"mesh":4,
			"name":"Cube.004",
			"skin":0
		},
		{
			"children":[
				5,
				6,
				7,
				8,
				9,
				4
			],
			"name":"Armature",
			"rotation":[
				0,
				-0.7071068286895752,
				0,
				0.7071068286895752
			],
			"translation":[
				0,
				-0.4999999403953552,
				0
			]
		}
	],
	"meshes":[
		{
			"name":"Cube",
			"primitives":[
				{
					"attributes":{
						"POSITION":0,
						"NORMAL":1,
						"TEXCOORD_0":2,
						"JOINTS_0":3,
						"WEIGHTS_0":4
					},
					"indices":5
				}
			]
		},
		{
			"name":"Cube.001",
			"primitives":[
				{
					"attributes":{
						"POSITION":7,
						"NORMAL":8,
						"TEXCOORD_0":9,
						"JOINTS_0":10,
						"WEIGHTS_0":11
					},
					"indices":5
				}
			]
		},
		{
			"name":"Cube.002",
			"primitives":[
				{
					"attributes":{
						"POSITION":12,
						"NORMAL":13,
						"TEXCOORD_0":14,
						"JOINTS_0":15,
						"WEIGHTS_0":16
					},
					"indices":5
				}
			]
		},
		{
			"name":"Cube.003",
			"primitives":[
				{
					"attributes":{
						"POSITION":17,
						"NORMAL":18,
						"TEXCOORD_0":19,
						"JOINTS_0":20,
						"WEIGHTS_0":21
					},
					"indices":5
				}
			]
		},
		{
			"name":"Cube.004",
			"primitives":[
				{
					"attributes":{
						"POSITION":22,
						"NORMAL":23,
						"TEXCOORD_0":24,
						"JOINTS_0":25,
						"WEIGHTS_0":26
					},
					"indices":5
				}
			]
		}
	],
	"skins":[
		{
			"inverseBindMatrices":6,
			"joints":[
				4,
				0,
				1,
				2,
				3
			],
			"name":"Armature"
		}
	],
	"accessors":[
		{
			"bufferView":0,
			"componentType":5126,
			"count":24,
			"max":[
				1,
				1,
				1
			],
			"min":[
				-1,
				-1,
				-1
			],
			"type":"VEC3"
		},
		{
			"bufferView":1,
			"componentType":5126,
			"count":24,
			"type":"VEC3"
		},
		{
			"bufferView":2,
			"componentType":5126,
			"count":24,
			"type":"VEC2"
		},
		{
			"bufferView":3,
			"componentType":5121,
			"count":24,
			"type":"VEC4"
		},
		{
			"bufferView":4,
			"componentType":5126,
			"count":24,
			"type":"VEC4"
		},
		{
			"bufferView":5,
			"componentType":5123,
			"count":36,
			"type":"SCALAR"
		},
		{
			"bufferView":6,
			"componentType":5126,
			"count":5,
			"type":"MAT4"
		},
		{
			"bufferView":7,
			"componentType":5126,
			"count":24,
			"max":[
				-3,
				5,
				1.0000003576278687
			],
			"min":[
				-5,
				2.999999761581421,
				-0.9999996423721313
			],
			"type":"VEC3"
		},
		{
			"bufferView":8,
			"componentType":5126,
			"count":24,
			"type":"VEC3"
		},
		{
			"bufferView":9,
			"componentType":5126,
			"count":24,
			"type":"VEC2"
		},
		{
			"bufferView":10,
			"componentType":5121,
			"count":24,
			"type":"VEC4"
		},
		{
			"bufferView":11,
			"componentType":5126,
			"count":24,
			"type":"VEC4"
		},
		{
			"bufferView":12,
			"componentType":5126,
			"count":24,
			"max":[
				5,
				5,
				0.9999996423721313
			],
			"min":[
				3,
				2.999999761581421,
				-1.0000003576278687
			],
			"type":"VEC3"
		},
		{
			"bufferView":13,
			"componentType":5126,
			"count":24,
			"type":"VEC3"
		},
		{
			"bufferView":14,
			"componentType":5126,
			"count":24,
			"type":"VEC2"
		},
		{
			"bufferView":15,
			"componentType":5121,
			"count":24,
			"type":"VEC4"
		},
		{
			"bufferView":16,
			"componentType":5126,
			"count":24,
			"type":"VEC4"
		},
		{
			"bufferView":17,
			"componentType":5126,
			"count":24,
			"max":[
				-3,
				-2.999999761581421,
				1.0000003576278687
			],
			"min":[
				-5,
				-5,
				-0.9999996423721313
			],
			"type":"VEC3"
		},
		{
			"bufferView":18,
			"componentType":5126,
			"count":24,
			"type":"VEC3"
		},
		{
			"bufferView":19,
			"componentType":5126,
			"count":24,
			"type":"VEC2"
		},
		{
			"bufferView":20,
			"componentType":5121,
			"count":24,
			"type":"VEC4"
		},
		{
			"bufferView":21,
			"componentType":5126,
			"count":24,
			"type":"VEC4"
		},
		{
			"bufferView":22,
			"componentType":5126,
			"count":24,
			"max":[
				5,
				-2.999999761581421,
				0.9999996423721313
			],
			"min":[
				3,
				-5,
				-1.0000003576278687
			],
			"type":"VEC3"
		},
		{
			"bufferView":23,
			"componentType":5126,
			"count":24,
			"type":"VEC3"
		},
		{
			"bufferView":24,
			"componentType":5126,
			"count":24,
			"type":"VEC2"
		},
		{
			"bufferView":25,
			"componentType":5121,
			"count":24,
			"type":"VEC4"
		},
		{
			"bufferView":26,
			"componentType":5126,
			"count":24,
			"type":"VEC4"
		}
	],
	"bufferViews":[
		{
			"buffer":0,
			"byteLength":288,
			"byteOffset":0,
			"target":34962
		},
		{
			"buffer":0,
			"byteLength":288,
			"byteOffset":288,
			"target":34962
		},
		{
			"buffer":0,
			"byteLength":192,
			"byteOffset":576,
			"target":34962
		},
		{
			"buffer":0,
			"byteLength":96,
			"byteOffset":768,
			"target":34962
		},
		{
			"buffer":0,
			"byteLength":384,
			"byteOffset":864,
			"target":34962
		},
		{
			"buffer":0,
			"byteLength":72,
			"byteOffset":1248,
			"target":34963
		},
		{
			"buffer":0,
			"byteLength":320,
			"byteOffset":1320
		},
		{
			"buffer":0,
			"byteLength":288,
			"byteOffset":1640,
			"target":34962
		},
		{
			"buffer":0,
			"byteLength":288,
			"byteOffset":1928,
			"target":34962
		},
		{
			"buffer":0,
			"byteLength":192,
			"byteOffset":2216,
			"target":34962
		},
		{
			"buffer":0,
			"byteLength":96,
			"byteOffset":2408,
			"target":34962
		},
		{
			"buffer":0,
			"byteLength":384,
			"byteOffset":2504,
			"target":34962
		},
		{
			"buffer":0,
			"byteLength":288,
			"byteOffset":2888,
			"target":34962
		},
		{
			"buffer":0,
			"byteLength":288,
			"byteOffset":3176,
			"target":34962
		},
		{
			"buffer":0,
			"byteLength":192,
			"byteOffset":3464,
			"target":34962
		},
		{
			"buffer":0,
			"byteLength":96,
			"byteOffset":3656,
			"target":34962
		},
		{
			"buffer":0,
			"byteLength":384,
			"byteOffset":3752,
			"target":34962
		},
		{
			"buffer":0,
			"byteLength":288,
			"byteOffset":4136,
			"target":34962
		},
		{
			"buffer":0,
			"byteLength":288,
			"byteOffset":4424,
			"target":34962
		},
		{
			"buffer":0,
			"byteLength":192,
			"byteOffset":4712,
			"target":34962
		},
		{
			"buffer":0,
			"byteLength":96,
			"byteOffset":4904,
			"target":34962
		},
		{
			"buffer":0,
			"byteLength":384,
			"byteOffset":5000,
			"target":34962
		},
		{
			"buffer":0,
			"byteLength":288,
			"byteOffset":5384,
			"target":34962
		},
		{
			"buffer":0,
			"byteLength":288,
			"byteOffset":5672,
			"target":34962
		},
		{
			"buffer":0,
			"byteLength":192,
			"byteOffset":5960,
			"target":34962
		},
		{
			"buffer":0,
			"byteLength":96,
			"byteOffset":6152,
			"target":34962
		},
		{
			"buffer":0,
			"byteLength":384,
			"byteOffset":6248,
			"target":34962
		}
	],
	"buffers":[
		{
			"byteLength":6632,
			"uri":"Test.bin"
		}
	]
}
